<svg xmlns="http://www.w3.org/2000/svg" viewBox="0 0 24 24" fill="none" stroke="currentColor" stroke-width="2" width="24" height="24" stroke-linecap="round" stroke-linejoin="round" class="lucide lucide-check"><rect fill="#000000" stroke="#000" stroke-width="1" stroke-linecap="inherit" stroke-linejoin="inherit" x="1" y="1" width="22" height="22" rx="2" ry="2" content=""></rect><path fill="none" stroke="#ffffff" stroke-width="2" stroke-linecap="square" stroke-linejoin="miter" d="M8 3H7a2 2 0 0 0-2 2v5a2 2 0 0 1-2 2 2 2 0 0 1 2 2v5c0 1.1.9 2 2 2h1" content=""></path><path fill="none" stroke="#ffffff" stroke-width="2" stroke-linecap="square" stroke-linejoin="bevel" d="M16 21h1a2 2 0 0 0 2-2v-5c0-1.1.9-2 2-2a2 2 0 0 1-2-2V5a2 2 0 0 0-2-2h-1" content=""></path><path fill="none" stroke="#d8ffc8" stroke-width="2" stroke-linecap="round" stroke-linejoin="inherit" d="M16 9 10.5 14.5l-2.5-2.5" content=""></path></svg>